<svg xmlns="http://www.w3.org/2000/svg" width="39" height="37" fill="none" viewBox="0 0 39 37"><g clip-path="url(#clip0)"><ellipse cx="20.204" cy="18" fill="#02353C" rx="19.238" ry="19"/><path fill="#F5F6F8" d="M29.8537 16.1044L14.5802 1.02008C13.2031 -0.340028 10.8245 -0.340028 9.57249 1.02008C8.1954 2.38019 8.1954 4.60569 9.57249 5.9658L22.217 18.5773L9.57257 31.0652C8.19547 32.4253 8.19547 34.6508 9.57257 36.0109C10.1986 36.6291 11.2001 37 12.0764 37C12.9527 37 13.9543 36.6291 14.5802 36.0108L29.8537 21.0501C30.4797 20.4319 30.8553 19.4428 30.8553 18.5772C30.8553 17.7118 30.4797 16.7227 29.8537 16.1044ZM28.1011 19.3191L12.9527 34.2799C12.5771 34.6508 11.826 34.6508 11.4504 34.2799C11.0749 33.909 11.0749 33.1671 11.4504 32.7962L24.9713 19.4428C25.4721 18.9482 25.4721 18.2064 24.9713 17.7118L11.3252 4.35846C10.9497 3.86388 10.9497 3.24565 11.3252 2.87478C11.5756 2.62749 11.826 2.50391 12.0764 2.50391C12.3268 2.50391 12.5772 2.62749 12.8276 2.87478L28.1011 17.9591C28.3515 18.2064 28.4766 18.4537 28.4766 18.701C28.3514 18.8245 28.2262 19.1955 28.1011 19.3191Z"/></g><defs><clipPath id="clip0"><rect width="37.464" height="37" fill="#fff" transform="translate(0.965515)"/></clipPath></defs></svg>