<svg xmlns="http://www.w3.org/2000/svg" width="29" height="28" fill="none" viewBox="0 0 29 28"><path fill="#02353C" d="M21.9585 12.1872L10.4002 0.771955C9.35801 -0.257318 7.55799 -0.257318 6.61056 0.771955C5.56843 1.80123 5.56843 3.48538 6.61056 4.51466L16.1794 14.0585L6.61061 23.5088C5.56849 24.538 5.56849 26.2223 6.61061 27.2515C7.08433 27.7193 7.84222 28 8.50537 28C9.16852 28 9.92653 27.7193 10.4002 27.2514L21.9585 15.9298C22.4322 15.4619 22.7165 14.7134 22.7165 14.0584C22.7165 13.4035 22.4322 12.655 21.9585 12.1872ZM20.6322 14.6199L9.16858 25.9415C8.88435 26.2222 8.31594 26.2222 8.03171 25.9415C7.74748 25.6609 7.74748 25.0994 8.03171 24.8188L18.2637 14.7135C18.6427 14.3392 18.6427 13.7778 18.2637 13.4036L7.93697 3.2983C7.65274 2.92402 7.65274 2.45617 7.93697 2.17551C8.12645 1.98837 8.31594 1.89485 8.50543 1.89485C8.69492 1.89485 8.8844 1.98837 9.07389 2.17551L20.6322 13.5907C20.8217 13.7778 20.9164 13.965 20.9164 14.1521C20.8217 14.2456 20.7269 14.5264 20.6322 14.6199Z"/></svg>