<svg xmlns="http://www.w3.org/2000/svg" width="30" height="28" fill="none" viewBox="0 0 30 28"><path fill="#fff" d="M22.783 12.1872L11.2247 0.771955C10.1825 -0.257318 8.38247 -0.257318 7.43504 0.771955C6.39291 1.80123 6.39291 3.48538 7.43504 4.51466L17.0039 14.0585L7.43509 23.5088C6.39297 24.538 6.39297 26.2223 7.43509 27.2515C7.90881 27.7193 8.6667 28 9.32985 28C9.993 28 10.751 27.7193 11.2247 27.2514L22.783 15.9298C23.2567 15.4619 23.541 14.7134 23.541 14.0584C23.541 13.4035 23.2567 12.655 22.783 12.1872ZM21.4566 14.6199L9.99306 25.9415C9.70883 26.2222 9.14042 26.2222 8.85619 25.9415C8.57196 25.6609 8.57196 25.0994 8.85619 24.8188L19.0882 14.7135C19.4671 14.3392 19.4671 13.7778 19.0882 13.4036L8.76145 3.2983C8.47721 2.92402 8.47721 2.45617 8.76145 2.17551C8.95093 1.98837 9.14042 1.89485 9.32991 1.89485C9.51939 1.89485 9.70888 1.98837 9.89837 2.17551L21.4567 13.5907C21.6462 13.7778 21.7409 13.965 21.7409 14.1521C21.6461 14.2456 21.5514 14.5264 21.4566 14.6199Z"/></svg>